{"asset":{"version":"2.0","generator":"Blockbench 4.1.5 glTF exporter"},"scenes":[{"nodes":[16],"name":"blockbench_export"}],"scene":0,"nodes":[{"translation":[-0.034375000000000044,0,0.0031250000000000444],"name":"needle","mesh":0},{"translation":[-0.034375000000000044,0,0.0031250000000000444],"name":"needle","mesh":1},{"translation":[-0.0031250000000000444,0,-0.034375000000000044],"name":"needle","mesh":2},{"translation":[-0.0031250000000000444,0,-0.034375000000000044],"name":"needle","mesh":3},{"rotation":[0,-0.3826834323650898,0,0.9238795325112867],"translation":[-0.07816406150355826,0.0001875000000000071,0.10683447234132099],"name":"needle","mesh":4},{"rotation":[0,0.3826834323650898,0,0.9238795325112867],"translation":[0.10683447234132165,0.0001875000000000071,1.0781640615035588],"name":"needle","mesh":5},{"rotation":[0,0.3826834323650898,0,0.9238795325112867],"translation":[0.08093496426341623,0.0001875000000000071,1.0522645534256534],"name":"needle","mesh":6},{"rotation":[0,-0.3826834323650898,0,0.9238795325112867],"translation":[-0.05226455342565195,0.0001875000000000071,0.08093496426341479],"name":"needle","mesh":7},{"translation":[-0.0031250000000000444,0,0.0031250000000000444],"name":"main","mesh":8},{"translation":[-0.0031250000000000444,0,-0.0031250000000000444],"name":"secondary","mesh":9},{"translation":[-0.0031250000000000444,0,0.0031250000000000444],"name":"detail_1_NOTNEEDED","mesh":10},{"rotation":[0,0.3826834323650898,0,0.9238795325112867],"translation":[0.07752106432842626,-0.12499999999999989,1.0489131534906635],"name":"detail_3","mesh":11},{"rotation":[0,-0.3826834323650898,0,0.9238795325112867],"translation":[0.01291796332096129,-0.2187499999999999,1.11183045835595],"name":"detail_4","mesh":12},{"translation":[-0.10916869631880582,0,-1.074248285481043],"name":"can_top&bottom"},{"translation":[-0.10916869631880582,0,-1.074248285481043],"name":"can_main"},{"translation":[0.10604369631880578,0,1.077373285481043],"name":"group","children":[13,14]},{"children":[0,1,2,3,4,5,6,7,8,9,10,11,12,15]}],"bufferViews":[{"buffer":0,"byteOffset":0,"byteLength":288,"target":34962,"byteStride":12},{"buffer":0,"byteOffset":288,"byteLength":288,"target":34962,"byteStride":12},{"buffer":0,"byteOffset":576,"byteLength":192,"target":34962,"byteStride":8},{"buffer":0,"byteOffset":768,"byteLength":24,"target":34963},{"buffer":0,"byteOffset":792,"byteLength":12,"target":34963},{"buffer":0,"byteOffset":804,"byteLength":24,"target":34963},{"buffer":0,"byteOffset":828,"byteLength":12,"target":34963},{"buffer":0,"byteOffset":840,"byteLength":288,"target":34962,"byteStride":12},{"buffer":0,"byteOffset":1128,"byteLength":288,"target":34962,"byteStride":12},{"buffer":0,"byteOffset":1416,"byteLength":192,"target":34962,"byteStride":8},{"buffer":0,"byteOffset":1608,"byteLength":48,"target":34963},{"buffer":0,"byteOffset":1656,"byteLength":12,"target":34963},{"buffer":0,"byteOffset":1668,"byteLength":12,"target":34963},{"buffer":0,"byteOffset":1680,"byteLength":288,"target":34962,"byteStride":12},{"buffer":0,"byteOffset":1968,"byteLength":288,"target":34962,"byteStride":12},{"buffer":0,"byteOffset":2256,"byteLength":192,"target":34962,"byteStride":8},{"buffer":0,"byteOffset":2448,"byteLength":12,"target":34963},{"buffer":0,"byteOffset":2460,"byteLength":12,"target":34963},{"buffer":0,"byteOffset":2472,"byteLength":48,"target":34963},{"buffer":0,"byteOffset":2520,"byteLength":288,"target":34962,"byteStride":12},{"buffer":0,"byteOffset":2808,"byteLength":288,"target":34962,"byteStride":12},{"buffer":0,"byteOffset":3096,"byteLength":192,"target":34962,"byteStride":8},{"buffer":0,"byteOffset":3288,"byteLength":12,"target":34963},{"buffer":0,"byteOffset":3300,"byteLength":12,"target":34963},{"buffer":0,"byteOffset":3312,"byteLength":12,"target":34963},{"buffer":0,"byteOffset":3324,"byteLength":36,"target":34963},{"buffer":0,"byteOffset":3360,"byteLength":288,"target":34962,"byteStride":12},{"buffer":0,"byteOffset":3648,"byteLength":288,"target":34962,"byteStride":12},{"buffer":0,"byteOffset":3936,"byteLength":192,"target":34962,"byteStride":8},{"buffer":0,"byteOffset":4128,"byteLength":24,"target":34963},{"buffer":0,"byteOffset":4152,"byteLength":12,"target":34963},{"buffer":0,"byteOffset":4164,"byteLength":24,"target":34963},{"buffer":0,"byteOffset":4188,"byteLength":12,"target":34963},{"buffer":0,"byteOffset":4200,"byteLength":288,"target":34962,"byteStride":12},{"buffer":0,"byteOffset":4488,"byteLength":288,"target":34962,"byteStride":12},{"buffer":0,"byteOffset":4776,"byteLength":192,"target":34962,"byteStride":8},{"buffer":0,"byteOffset":4968,"byteLength":24,"target":34963},{"buffer":0,"byteOffset":4992,"byteLength":12,"target":34963},{"buffer":0,"byteOffset":5004,"byteLength":24,"target":34963},{"buffer":0,"byteOffset":5028,"byteLength":12,"target":34963},{"buffer":0,"byteOffset":5040,"byteLength":288,"target":34962,"byteStride":12},{"buffer":0,"byteOffset":5328,"byteLength":288,"target":34962,"byteStride":12},{"buffer":0,"byteOffset":5616,"byteLength":192,"target":34962,"byteStride":8},{"buffer":0,"byteOffset":5808,"byteLength":24,"target":34963},{"buffer":0,"byteOffset":5832,"byteLength":12,"target":34963},{"buffer":0,"byteOffset":5844,"byteLength":12,"target":34963},{"buffer":0,"byteOffset":5856,"byteLength":12,"target":34963},{"buffer":0,"byteOffset":5868,"byteLength":12,"target":34963},{"buffer":0,"byteOffset":5880,"byteLength":288,"target":34962,"byteStride":12},{"buffer":0,"byteOffset":6168,"byteLength":288,"target":34962,"byteStride":12},{"buffer":0,"byteOffset":6456,"byteLength":192,"target":34962,"byteStride":8},{"buffer":0,"byteOffset":6648,"byteLength":48,"target":34963},{"buffer":0,"byteOffset":6696,"byteLength":12,"target":34963},{"buffer":0,"byteOffset":6708,"byteLength":12,"target":34963},{"buffer":0,"byteOffset":6720,"byteLength":288,"target":34962,"byteStride":12},{"buffer":0,"byteOffset":7008,"byteLength":288,"target":34962,"byteStride":12},{"buffer":0,"byteOffset":7296,"byteLength":192,"target":34962,"byteStride":8},{"buffer":0,"byteOffset":7488,"byteLength":24,"target":34963},{"buffer":0,"byteOffset":7512,"byteLength":12,"target":34963},{"buffer":0,"byteOffset":7524,"byteLength":12,"target":34963},{"buffer":0,"byteOffset":7536,"byteLength":24,"target":34963},{"buffer":0,"byteOffset":7560,"byteLength":288,"target":34962,"byteStride":12},{"buffer":0,"byteOffset":7848,"byteLength":288,"target":34962,"byteStride":12},{"buffer":0,"byteOffset":8136,"byteLength":192,"target":34962,"byteStride":8},{"buffer":0,"byteOffset":8328,"byteLength":24,"target":34963},{"buffer":0,"byteOffset":8352,"byteLength":12,"target":34963},{"buffer":0,"byteOffset":8364,"byteLength":12,"target":34963},{"buffer":0,"byteOffset":8376,"byteLength":24,"target":34963},{"buffer":0,"byteOffset":8400,"byteLength":288,"target":34962,"byteStride":12},{"buffer":0,"byteOffset":8688,"byteLength":288,"target":34962,"byteStride":12},{"buffer":0,"byteOffset":8976,"byteLength":192,"target":34962,"byteStride":8},{"buffer":0,"byteOffset":9168,"byteLength":24,"target":34963},{"buffer":0,"byteOffset":9192,"byteLength":288,"target":34962,"byteStride":12},{"buffer":0,"byteOffset":9480,"byteLength":288,"target":34962,"byteStride":12},{"buffer":0,"byteOffset":9768,"byteLength":192,"target":34962,"byteStride":8},{"buffer":0,"byteOffset":9960,"byteLength":24,"target":34963},{"buffer":0,"byteOffset":9984,"byteLength":288,"target":34962,"byteStride":12},{"buffer":0,"byteOffset":10272,"byteLength":288,"target":34962,"byteStride":12},{"buffer":0,"byteOffset":10560,"byteLength":192,"target":34962,"byteStride":8},{"buffer":0,"byteOffset":10752,"byteLength":12,"target":34963},{"buffer":0,"byteOffset":10764,"byteLength":24,"target":34963}],"buffers":[{"byteLength":10788,"uri":"data:application/octet-stream;base64,"}],"accessors":[{"bufferView":0,"componentType":5126,"count":24,"max":[0.628125011920929,0.4375,0.34062498807907104],"min":[0.44062501192092896,0,0.30937498807907104],"type":"VEC3"},{"bufferView":1,"componentType":5126,"count":24,"max":[1,1,1],"min":[-1,-1,-1],"type":"VEC3"},{"bufferView":2,"componentType":5126,"count":24,"max":[0.6875,1],"min":[0,0.0625],"type":"VEC2"},{"bufferView":3,"componentType":5123,"count":12,"max":[7],"min":[0],"type":"SCALAR"},{"bufferView":4,"componentType":5123,"count":6,"max":[11],"min":[8],"type":"SCALAR"},{"bufferView":5,"componentType":5123,"count":12,"max":[19],"min":[12],"type":"SCALAR"},{"bufferView":6,"componentType":5123,"count":6,"max":[23],"min":[20],"type":"SCALAR"},{"bufferView":7,"componentType":5126,"count":24,"max":[0.628125011920929,0.4375,0.684374988079071],"min":[0.44062501192092896,0,0.653124988079071],"type":"VEC3"},{"bufferView":8,"componentType":5126,"count":24,"max":[1,1,1],"min":[-1,-1,-1],"type":"VEC3"},{"bufferView":9,"componentType":5126,"count":24,"max":[0.6875,1],"min":[0,0.0625],"type":"VEC2"},{"bufferView":10,"componentType":5123,"count":24,"max":[15],"min":[0],"type":"SCALAR"},{"bufferView":11,"componentType":5123,"count":6,"max":[19],"min":[16],"type":"SCALAR"},{"bufferView":12,"componentType":5123,"count":6,"max":[23],"min":[20],"type":"SCALAR"},{"bufferView":13,"componentType":5126,"count":24,"max":[0.34687501192092896,0.4375,0.628125011920929],"min":[0.31562501192092896,0,0.44062501192092896],"type":"VEC3"},{"bufferView":14,"componentType":5126,"count":24,"max":[1,1,1],"min":[-1,-1,-1],"type":"VEC3"},{"bufferView":15,"componentType":5126,"count":24,"max":[0.6875,1],"min":[0,0.0625],"type":"VEC2"},{"bufferView":16,"componentType":5123,"count":6,"max":[3],"min":[0],"type":"SCALAR"},{"bufferView":17,"componentType":5123,"count":6,"max":[7],"min":[4],"type":"SCALAR"},{"bufferView":18,"componentType":5123,"count":24,"max":[23],"min":[8],"type":"SCALAR"},{"bufferView":19,"componentType":5126,"count":24,"max":[0.690625011920929,0.4375,0.628125011920929],"min":[0.659375011920929,0,0.44062501192092896],"type":"VEC3"},{"bufferView":20,"componentType":5126,"count":24,"max":[1,1,1],"min":[-1,-1,-1],"type":"VEC3"},{"bufferView":21,"componentType":5126,"count":24,"max":[0.6875,1],"min":[0,0.0625],"type":"VEC2"},{"bufferView":22,"componentType":5123,"count":6,"max":[3],"min":[0],"type":"SCALAR"},{"bufferView":23,"componentType":5123,"count":6,"max":[7],"min":[4],"type":"SCALAR"},{"bufferView":24,"componentType":5123,"count":6,"max":[11],"min":[8],"type":"SCALAR"},{"bufferView":25,"componentType":5123,"count":18,"max":[23],"min":[12],"type":"SCALAR"},{"bufferView":26,"componentType":5126,"count":24,"max":[0.753125011920929,0.4372499883174896,-0.2984375059604645],"min":[0.6205424666404724,-0.0001250000059371814,-0.3296875059604645],"type":"VEC3"},{"bufferView":27,"componentType":5126,"count":24,"max":[1,1,1],"min":[-1,-1,-1],"type":"VEC3"},{"bufferView":28,"componentType":5126,"count":24,"max":[0.625,1],"min":[0,0.0625],"type":"VEC2"},{"bufferView":29,"componentType":5123,"count":12,"max":[7],"min":[0],"type":"SCALAR"},{"bufferView":30,"componentType":5123,"count":6,"max":[11],"min":[8],"type":"SCALAR"},{"bufferView":31,"componentType":5123,"count":12,"max":[19],"min":[12],"type":"SCALAR"},{"bufferView":32,"componentType":5123,"count":6,"max":[23],"min":[20],"type":"SCALAR"},{"bufferView":33,"componentType":5126,"count":24,"max":[0.753125011920929,0.4372499883174896,-0.2984375059604645],"min":[0.6205424666404724,-0.0001250000059371814,-0.3296875059604645],"type":"VEC3"},{"bufferView":34,"componentType":5126,"count":24,"max":[1,1,1],"min":[-1,-1,-1],"type":"VEC3"},{"bufferView":35,"componentType":5126,"count":24,"max":[0.6875,1],"min":[0,0.0625],"type":"VEC2"},{"bufferView":36,"componentType":5123,"count":12,"max":[7],"min":[0],"type":"SCALAR"},{"bufferView":37,"componentType":5123,"count":6,"max":[11],"min":[8],"type":"SCALAR"},{"bufferView":38,"componentType":5123,"count":12,"max":[19],"min":[12],"type":"SCALAR"},{"bufferView":39,"componentType":5123,"count":6,"max":[23],"min":[20],"type":"SCALAR"},{"bufferView":40,"componentType":5126,"count":24,"max":[0.753125011920929,0.4372499883174896,0.10468749701976776],"min":[0.6205424666404724,-0.0001250000059371814,0.07343749701976776],"type":"VEC3"},{"bufferView":41,"componentType":5126,"count":24,"max":[1,1,1],"min":[-1,-1,-1],"type":"VEC3"},{"bufferView":42,"componentType":5126,"count":24,"max":[0.5,1],"min":[0,0],"type":"VEC2"},{"bufferView":43,"componentType":5123,"count":12,"max":[7],"min":[0],"type":"SCALAR"},{"bufferView":44,"componentType":5123,"count":6,"max":[11],"min":[8],"type":"SCALAR"},{"bufferView":45,"componentType":5123,"count":6,"max":[15],"min":[12],"type":"SCALAR"},{"bufferView":46,"componentType":5123,"count":6,"max":[19],"min":[16],"type":"SCALAR"},{"bufferView":47,"componentType":5123,"count":6,"max":[23],"min":[20],"type":"SCALAR"},{"bufferView":48,"componentType":5126,"count":24,"max":[0.753125011920929,0.4372499883174896,0.10468749701976776],"min":[0.6205424666404724,-0.0001250000059371814,0.07343749701976776],"type":"VEC3"},{"bufferView":49,"componentType":5126,"count":24,"max":[1,1,1],"min":[-1,-1,-1],"type":"VEC3"},{"bufferView":50,"componentType":5126,"count":24,"max":[0.625,1],"min":[0,0.0625],"type":"VEC2"},{"bufferView":51,"componentType":5123,"count":24,"max":[15],"min":[0],"type":"SCALAR"},{"bufferView":52,"componentType":5123,"count":6,"max":[19],"min":[16],"type":"SCALAR"},{"bufferView":53,"componentType":5123,"count":6,"max":[23],"min":[20],"type":"SCALAR"},{"bufferView":54,"componentType":5126,"count":24,"max":[0.628125011920929,0.4156250059604645,0.653124988079071],"min":[0.37812501192092896,0.02187499962747097,0.34062498807907104],"type":"VEC3"},{"bufferView":55,"componentType":5126,"count":24,"max":[1,1,1],"min":[-1,-1,-1],"type":"VEC3"},{"bufferView":56,"componentType":5126,"count":24,"max":[0.6875,0.9375],"min":[0,0.3125],"type":"VEC2"},{"bufferView":57,"componentType":5123,"count":12,"max":[7],"min":[0],"type":"SCALAR"},{"bufferView":58,"componentType":5123,"count":6,"max":[11],"min":[8],"type":"SCALAR"},{"bufferView":59,"componentType":5123,"count":6,"max":[15],"min":[12],"type":"SCALAR"},{"bufferView":60,"componentType":5123,"count":12,"max":[23],"min":[16],"type":"SCALAR"},{"bufferView":61,"componentType":5126,"count":24,"max":[0.659375011920929,0.4155625104904175,0.628125011920929],"min":[0.34687501192092896,0.021937500685453415,0.37812501192092896],"type":"VEC3"},{"bufferView":62,"componentType":5126,"count":24,"max":[1,1,1],"min":[-1,-1,-1],"type":"VEC3"},{"bufferView":63,"componentType":5126,"count":24,"max":[0.75,0.875],"min":[0,0.3125],"type":"VEC2"},{"bufferView":64,"componentType":5123,"count":12,"max":[7],"min":[0],"type":"SCALAR"},{"bufferView":65,"componentType":5123,"count":6,"max":[11],"min":[8],"type":"SCALAR"},{"bufferView":66,"componentType":5123,"count":6,"max":[15],"min":[12],"type":"SCALAR"},{"bufferView":67,"componentType":5123,"count":12,"max":[23],"min":[16],"type":"SCALAR"},{"bufferView":68,"componentType":5126,"count":24,"max":[0.596875011920929,0.4375,0.6844375133514404],"min":[0.40937501192092896,0,0.30931249260902405],"type":"VEC3"},{"bufferView":69,"componentType":5126,"count":24,"max":[1,1,1],"min":[-1,-1,-1],"type":"VEC3"},{"bufferView":70,"componentType":5126,"count":24,"max":[1,1],"min":[0,0],"type":"VEC2"},{"bufferView":71,"componentType":5123,"count":12,"max":[23],"min":[16],"type":"SCALAR"},{"bufferView":72,"componentType":5126,"count":24,"max":[0.7532134056091309,0.5625,0.109515480697155],"min":[0.6205424666404724,0.125,-0.28832048177719116],"type":"VEC3"},{"bufferView":73,"componentType":5126,"count":24,"max":[1,1,1],"min":[-1,-1,-1],"type":"VEC3"},{"bufferView":74,"componentType":5126,"count":24,"max":[1,1],"min":[0,0],"type":"VEC2"},{"bufferView":75,"componentType":5123,"count":12,"max":[23],"min":[16],"type":"SCALAR"},{"bufferView":76,"componentType":5126,"count":24,"max":[-0.02187499962747097,0.65625,-0.5781304836273193],"min":[-0.15454590320587158,0.21875,-0.9759664535522461],"type":"VEC3"},{"bufferView":77,"componentType":5126,"count":24,"max":[1,1,1],"min":[-1,-1,-1],"type":"VEC3"},{"bufferView":78,"componentType":5126,"count":24,"max":[1,1],"min":[0,0],"type":"VEC2"},{"bufferView":79,"componentType":5123,"count":6,"max":[15],"min":[12],"type":"SCALAR"},{"bufferView":80,"componentType":5123,"count":12,"max":[23],"min":[16],"type":"SCALAR"}],"materials":[{"pbrMetallicRoughness":{"metallicFactor":0,"roughnessFactor":1,"baseColorTexture":{"index":0}},"alphaMode":"MASK","alphaCutoff":0.05},{"pbrMetallicRoughness":{"metallicFactor":0,"roughnessFactor":1,"baseColorTexture":{"index":1}},"alphaMode":"MASK","alphaCutoff":0.05},{"pbrMetallicRoughness":{"metallicFactor":0,"roughnessFactor":1,"baseColorTexture":{"index":2}},"alphaMode":"MASK","alphaCutoff":0.05},{"pbrMetallicRoughness":{"metallicFactor":0,"roughnessFactor":1,"baseColorTexture":{"index":3}},"alphaMode":"MASK","alphaCutoff":0.05},{"pbrMetallicRoughness":{"metallicFactor":0,"roughnessFactor":1,"baseColorTexture":{"index":4}},"alphaMode":"MASK","alphaCutoff":0.05}],"textures":[{"sampler":0,"source":0,"name":"anvil.png"},{"sampler":1,"source":1,"name":"anvil_top.png"},{"sampler":2,"source":2,"name":"iron_block.png"},{"sampler":3,"source":3,"name":"tube_coral_block.png"},{"sampler":4,"source":4,"name":"damage_multiplyer.png"}],"samplers":[{"magFilter":9728,"minFilter":9728,"wrapS":33071,"wrapT":33071},{"magFilter":9728,"minFilter":9728,"wrapS":33071,"wrapT":33071},{"magFilter":9728,"minFilter":9728,"wrapS":33071,"wrapT":33071},{"magFilter":9728,"minFilter":9728,"wrapS":33071,"wrapT":33071},{"magFilter":9728,"minFilter":9728,"wrapS":33071,"wrapT":33071}],"images":[{"mimeType":"image/png","uri":"data:image/png;base64,"},{"mimeType":"image/png","uri":"data:image/png;base64,"},{"mimeType":"image/png","uri":"data:image/png;base64,"},{"mimeType":"image/png","uri":"data:image/png;base64,"},{"mimeType":"image/png","uri":"data:image/png;base64,"}],"meshes":[{"primitives":[{"mode":4,"attributes":{"POSITION":0,"NORMAL":1,"TEXCOORD_0":2},"indices":3,"material":0},{"mode":4,"attributes":{"POSITION":0,"NORMAL":1,"TEXCOORD_0":2},"indices":4,"material":1},{"mode":4,"attributes":{"POSITION":0,"NORMAL":1,"TEXCOORD_0":2},"indices":5,"material":0},{"mode":4,"attributes":{"POSITION":0,"NORMAL":1,"TEXCOORD_0":2},"indices":6,"material":1}]},{"primitives":[{"mode":4,"attributes":{"POSITION":7,"NORMAL":8,"TEXCOORD_0":9},"indices":10,"material":0},{"mode":4,"attributes":{"POSITION":7,"NORMAL":8,"TEXCOORD_0":9},"indices":11,"material":1},{"mode":4,"attributes":{"POSITION":7,"NORMAL":8,"TEXCOORD_0":9},"indices":12,"material":0}]},{"primitives":[{"mode":4,"attributes":{"POSITION":13,"NORMAL":14,"TEXCOORD_0":15},"indices":16,"material":0},{"mode":4,"attributes":{"POSITION":13,"NORMAL":14,"TEXCOORD_0":15},"indices":17,"material":1},{"mode":4,"attributes":{"POSITION":13,"NORMAL":14,"TEXCOORD_0":15},"indices":18,"material":0}]},{"primitives":[{"mode":4,"attributes":{"POSITION":19,"NORMAL":20,"TEXCOORD_0":21},"indices":22,"material":1},{"mode":4,"attributes":{"POSITION":19,"NORMAL":20,"TEXCOORD_0":21},"indices":23,"material":0},{"mode":4,"attributes":{"POSITION":19,"NORMAL":20,"TEXCOORD_0":21},"indices":24,"material":1},{"mode":4,"attributes":{"POSITION":19,"NORMAL":20,"TEXCOORD_0":21},"indices":25,"material":0}]},{"primitives":[{"mode":4,"attributes":{"POSITION":26,"NORMAL":27,"TEXCOORD_0":28},"indices":29,"material":0},{"mode":4,"attributes":{"POSITION":26,"NORMAL":27,"TEXCOORD_0":28},"indices":30,"material":1},{"mode":4,"attributes":{"POSITION":26,"NORMAL":27,"TEXCOORD_0":28},"indices":31,"material":0},{"mode":4,"attributes":{"POSITION":26,"NORMAL":27,"TEXCOORD_0":28},"indices":32,"material":1}]},{"primitives":[{"mode":4,"attributes":{"POSITION":33,"NORMAL":34,"TEXCOORD_0":35},"indices":36,"material":0},{"mode":4,"attributes":{"POSITION":33,"NORMAL":34,"TEXCOORD_0":35},"indices":37,"material":1},{"mode":4,"attributes":{"POSITION":33,"NORMAL":34,"TEXCOORD_0":35},"indices":38,"material":0},{"mode":4,"attributes":{"POSITION":33,"NORMAL":34,"TEXCOORD_0":35},"indices":39,"material":1}]},{"primitives":[{"mode":4,"attributes":{"POSITION":40,"NORMAL":41,"TEXCOORD_0":42},"indices":43,"material":0},{"mode":4,"attributes":{"POSITION":40,"NORMAL":41,"TEXCOORD_0":42},"indices":44,"material":1},{"mode":4,"attributes":{"POSITION":40,"NORMAL":41,"TEXCOORD_0":42},"indices":45,"material":0},{"mode":4,"attributes":{"POSITION":40,"NORMAL":41,"TEXCOORD_0":42},"indices":46,"material":1},{"mode":4,"attributes":{"POSITION":40,"NORMAL":41,"TEXCOORD_0":42},"indices":47,"material":0}]},{"primitives":[{"mode":4,"attributes":{"POSITION":48,"NORMAL":49,"TEXCOORD_0":50},"indices":51,"material":0},{"mode":4,"attributes":{"POSITION":48,"NORMAL":49,"TEXCOORD_0":50},"indices":52,"material":1},{"mode":4,"attributes":{"POSITION":48,"NORMAL":49,"TEXCOORD_0":50},"indices":53,"material":0}]},{"primitives":[{"mode":4,"attributes":{"POSITION":54,"NORMAL":55,"TEXCOORD_0":56},"indices":57,"material":2},{"mode":4,"attributes":{"POSITION":54,"NORMAL":55,"TEXCOORD_0":56},"indices":58,"material":3},{"mode":4,"attributes":{"POSITION":54,"NORMAL":55,"TEXCOORD_0":56},"indices":59,"material":0},{"mode":4,"attributes":{"POSITION":54,"NORMAL":55,"TEXCOORD_0":56},"indices":60,"material":2}]},{"primitives":[{"mode":4,"attributes":{"POSITION":61,"NORMAL":62,"TEXCOORD_0":63},"indices":64,"material":2},{"mode":4,"attributes":{"POSITION":61,"NORMAL":62,"TEXCOORD_0":63},"indices":65,"material":3},{"mode":4,"attributes":{"POSITION":61,"NORMAL":62,"TEXCOORD_0":63},"indices":66,"material":0},{"mode":4,"attributes":{"POSITION":61,"NORMAL":62,"TEXCOORD_0":63},"indices":67,"material":2}]},{"primitives":[{"mode":4,"attributes":{"POSITION":68,"NORMAL":69,"TEXCOORD_0":70},"indices":71,"material":4}]},{"primitives":[{"mode":4,"attributes":{"POSITION":72,"NORMAL":73,"TEXCOORD_0":74},"indices":75,"material":4}]},{"primitives":[{"mode":4,"attributes":{"POSITION":76,"NORMAL":77,"TEXCOORD_0":78},"indices":79,"material":0},{"mode":4,"attributes":{"POSITION":76,"NORMAL":77,"TEXCOORD_0":78},"indices":80,"material":4}]}]}